# xmcd CD database file
#
# Track frame offsets:
#	150
#	15910
#	34535
#	52862
#	58882
#	74850
#	91452
#	105832
#	127377
#	141652
#	159955
#	175422
#
# Disc length: 2709 seconds
#
# Revision: 0
# Processed by: cddbd v1.5.1PL0 Copyright (c) Steve Scherf et al.
# Submitted via: CDex 1.51
#
DISCID=a70a930c
DTITLE=C-C-B - すてきなビート
DYEAR=1994
DGENRE=Pop
TTITLE0=Romanticが止まらない (オモシロ Mix)
TTITLE1=急接近
TTITLE2=スクール・ボーイ
TTITLE3=Forever
TTITLE4=二人のシーズン
TTITLE5=I Say, I Love You
TTITLE6=浮気なジル
TTITLE7=メモリーなんていらない
TTITLE8=Romanticが止まらない
TTITLE9=スクール・ガール (single Mix)
TTITLE10=もっとハートフルに愛して
TTITLE11=すてきなビート (Mega Mix)
EXTD=YEAR: 1994
EXTT0=
EXTT1=
EXTT2=
EXTT3=
EXTT4=
EXTT5=
EXTT6=
EXTT7=
EXTT8=
EXTT9=
EXTT10=
EXTT11=
PLAYORDER=
